# xmcd
#
# Track frame offsets:
#	150
#	12002
#	29495
#	40940
#	55445
#
# Disc length: 1030 seconds
#
# Revision: 1
# Processed by: cddbd v1.5.1PL0 Copyright (c) Steve Scherf et al.
# Submitted via: CDex 1.50Beta5
#
DISCID=39040405
DTITLE=TAIZO-ZERO MHz - Another World
DYEAR=2001
DGENRE=Rock
TTITLE0=踊れクラクション
TTITLE1=Another World
TTITLE2=INTER COURSE
TTITLE3=RISE TO THE RED
TTITLE4=WALK
EXTD=
EXTT0=
EXTT1=
EXTT2=
EXTT3=
EXTT4=
PLAYORDER=
